<svg width="21" height="12" viewBox="0 0 21 12" fill="none" xmlns="http://www.w3.org/2000/svg">
<path d="M0.457479 0.457463C0.750491 0.164539 1.14785 -1.62125e-05 1.56217 -1.62125e-05C1.97649 -1.62125e-05 2.37384 0.164539 2.66685 0.457463L10.4012 8.19184L18.1356 0.457463C18.4303 0.172841 18.825 0.0153494 19.2347 0.0189095C19.6444 0.0224695 20.0362 0.186796 20.3259 0.476496C20.6156 0.766196 20.78 1.15809 20.7835 1.56777C20.7871 1.97746 20.6296 2.37215 20.345 2.66684L11.5059 11.5059C11.2129 11.7988 10.8155 11.9634 10.4012 11.9634C9.98691 11.9634 9.58955 11.7988 9.29654 11.5059L0.457479 2.66684C0.164555 2.37383 0 1.97647 0 1.56215C0 1.14783 0.164555 0.750475 0.457479 0.457463Z" fill="#F9F9F9"/>
</svg>
