<svg width="39" height="35" viewBox="0 0 39 35" fill="none" xmlns="http://www.w3.org/2000/svg">
<path d="M38.3028 12.153C38.042 11.8537 37.7209 11.6136 37.3606 11.4489C37.0004 11.2841 36.6093 11.1984 36.2135 11.1974H29.8814L20.5442 0.474038C20.4135 0.325052 20.2527 0.205731 20.0726 0.124C19.8925 0.0422692 19.6972 0 19.4996 0C19.302 0 19.1066 0.0422692 18.9265 0.124C18.7464 0.205731 18.5857 0.325052 18.4549 0.474038L9.11777 11.1974H2.78561C2.38877 11.1974 1.99651 11.2827 1.6351 11.4475C1.27369 11.6122 0.951476 11.8527 0.690026 12.1528C0.428576 12.4529 0.23393 12.8057 0.119123 13.1876C0.0043151 13.5695 -0.0280042 13.9716 0.0243292 14.367L2.43741 32.5707C2.52687 33.2435 2.85636 33.8607 3.3646 34.3076C3.87284 34.7544 4.52523 35.0005 5.20043 35H33.7987C34.4739 35.0005 35.1263 34.7544 35.6345 34.3076C36.1428 33.8607 36.4723 33.2435 36.5617 32.5707L38.9766 14.3688C39.028 13.9725 38.9945 13.5698 38.8783 13.1876C38.7621 12.8054 38.5659 12.4527 38.3028 12.153ZM11.4212 29.3994C11.3742 29.402 11.3271 29.402 11.2801 29.3994C10.9336 29.4011 10.5989 29.273 10.3414 29.04C10.0839 28.807 9.92195 28.4858 9.8873 28.1393L8.91232 18.3382C8.87538 17.9687 8.98597 17.5996 9.21975 17.3121C9.45353 17.0246 9.79135 16.8422 10.1589 16.805C10.5265 16.7679 10.8936 16.8791 11.1797 17.1141C11.4657 17.3491 11.6471 17.6887 11.6841 18.0582L12.659 27.8592C12.698 28.2285 12.5895 28.5982 12.3574 28.887C12.1252 29.1759 11.7885 29.3602 11.4212 29.3994ZM20.8924 27.9992C20.8924 28.3706 20.7457 28.7267 20.4845 28.9893C20.2232 29.2519 19.869 29.3994 19.4996 29.3994C19.1302 29.3994 18.7759 29.2519 18.5147 28.9893C18.2535 28.7267 18.1067 28.3706 18.1067 27.9992V18.1982C18.1067 17.8269 18.2535 17.4707 18.5147 17.2081C18.7759 16.9456 19.1302 16.798 19.4996 16.798C19.869 16.798 20.2232 16.9456 20.4845 17.2081C20.7457 17.4707 20.8924 17.8269 20.8924 18.1982V27.9992ZM12.8192 11.1974L19.4996 3.52287L26.1799 11.1974H12.8192ZM30.0781 18.3382L29.1031 28.1393C29.0686 28.4843 28.908 28.8042 28.6523 29.037C28.3966 29.2698 28.064 29.399 27.719 29.3994C27.672 29.402 27.625 29.402 27.578 29.3994C27.396 29.381 27.2194 29.3268 27.0582 29.2398C26.8971 29.1528 26.7546 29.0347 26.6388 28.8924C26.5231 28.75 26.4363 28.5861 26.3836 28.41C26.3308 28.234 26.3131 28.0492 26.3314 27.8662L27.3064 18.0652C27.3433 17.6957 27.5248 17.3561 27.8108 17.1211C28.0968 16.8861 28.464 16.7749 28.8315 16.812C29.1991 16.8492 29.5369 17.0316 29.7707 17.3191C30.0045 17.6066 30.1151 17.9757 30.0781 18.3452V18.3382Z" fill="#F9F9F9"/>
</svg>
