			<svg width="32" height="35" viewBox="0 0 32 35" fill="none" xmlns="http://www.w3.org/2000/svg">
				<path
					d="M16 19.25C20.2596 19.25 24.1333 20.4645 26.9831 22.1742C28.4053 23.0317 29.6213 24.038 30.4996 25.1318C31.3636 26.2097 32 27.4977 32 28.875C32 30.3538 31.2693 31.5193 30.2169 32.3505C29.2213 33.138 27.9076 33.6595 26.512 34.0235C23.7067 34.7533 19.9627 35 16 35C12.0373 35 8.29333 34.755 5.488 34.0235C4.09244 33.6595 2.77867 33.138 1.78311 32.3505C0.728889 31.5175 0 30.3538 0 28.875C0 27.4977 0.636445 26.2097 1.50044 25.1318C2.37867 24.038 3.59289 23.0317 5.01689 22.1742C7.86667 20.4645 11.7422 19.25 16 19.25ZM16 0C18.3575 0 20.6184 0.921872 22.2854 2.56282C23.9524 4.20376 24.8889 6.42936 24.8889 8.75C24.8889 11.0706 23.9524 13.2962 22.2854 14.9372C20.6184 16.5781 18.3575 17.5 16 17.5C13.6425 17.5 11.3816 16.5781 9.71461 14.9372C8.04762 13.2962 7.11111 11.0706 7.11111 8.75C7.11111 6.42936 8.04762 4.20376 9.71461 2.56282C11.3816 0.921872 13.6425 0 16 0Z"
					fill="#F9F9F9" />
			</svg>
